<?xml version="1.0" standalone="no"?><!DOCTYPE svg PUBLIC "-//W3C//DTD SVG 1.1//EN" "http://www.w3.org/Graphics/SVG/1.1/DTD/svg11.dtd"><svg height="800" node-id="1" sillyvg="true" template-height="800" template-width="800" version="1.1" viewBox="0 0 800 800" width="800" xmlns="http://www.w3.org/2000/svg" xmlns:xlink="http://www.w3.org/1999/xlink"><defs node-id="49"><linearGradient gradientUnits="objectBoundingBox" id="SVGID_1_" node-id="17" spreadMethod="pad" x1="389.8995" x2="389.8995" y1="87.6274" y2="706.619"><stop offset="0.0000001918004" stop-color="#f6f8ff"></stop><stop offset="1" stop-color="#d9e3ff"></stop></linearGradient><linearGradient gradientUnits="objectBoundingBox" id="SVGID_2_" node-id="25" spreadMethod="pad" x1="82.0704" x2="256.6039" y1="313.8314" y2="488.3649"><stop offset="0" stop-color="#d4e1ff"></stop><stop offset="1" stop-color="#7798ff"></stop></linearGradient><linearGradient gradientUnits="objectBoundingBox" id="SVGID_3_" node-id="29" spreadMethod="pad" x1="559.1218" x2="733.6553" y1="313.8314" y2="488.3649"><stop offset="0" stop-color="#d4e1ff"></stop><stop offset="1" stop-color="#7798ff"></stop></linearGradient><linearGradient gradientUnits="objectBoundingBox" id="SVGID_4_" node-id="33" spreadMethod="pad" x1="290.9846" x2="512.0224" y1="274.9543" y2="495.9921"><stop offset="0" stop-color="#d4e1ff"></stop><stop offset="1" stop-color="#7798ff"></stop></linearGradient></defs><g node-id="130"><g node-id="137"><g node-id="138"><path d="M 687.70 167.60 L 687.60 170.20 L 686.20 175.20 L 683.70 179.60 L 681.90 181.60 L 680.00 183.30 L 675.50 185.90 L 670.60 187.20 L 668.00 187.40 L 665.30 187.20 L 660.40 185.90 L 655.90 183.30 L 654.00 181.60 L 650.80 177.50 L 648.80 172.70 L 648.30 170.20 L 648.20 167.60 L 648.80 162.50 L 650.80 157.70 L 654.00 153.60 L 655.90 151.90 L 660.40 149.30 L 665.30 148.00 L 668.00 147.80 L 670.60 148.00 L 675.50 149.30 L 680.00 151.90 L 681.90 153.60 L 683.70 155.60 L 686.20 160.00 L 687.60 165.00 L 687.70 167.60 Z" fill="#f3f6ff" fill-rule="nonzero" group-id="1,8,9" node-id="81" stroke="none" target-height="39.59999" target-width="39.5" target-x="648.2" target-y="147.8"></path><path d="M 119.60 619.40 L 119.40 622.00 L 118.10 627.00 L 115.50 631.40 L 113.80 633.40 L 111.80 635.10 L 107.40 637.70 L 102.40 639.00 L 99.80 639.20 L 97.20 639.00 L 92.30 637.70 L 87.80 635.10 L 85.80 633.40 L 82.70 629.30 L 80.70 624.50 L 80.20 622.00 L 80.10 619.40 L 80.70 614.30 L 82.70 609.50 L 85.80 605.40 L 87.80 603.70 L 92.30 601.10 L 97.20 599.80 L 99.80 599.60 L 102.40 599.80 L 107.40 601.10 L 111.80 603.70 L 113.80 605.40 L 115.50 607.40 L 118.10 611.80 L 119.40 616.80 L 119.60 619.40 Z" fill="#dfe7ff" fill-rule="nonzero" group-id="1,8,9" node-id="83" stroke="none" target-height="39.600037" target-width="39.5" target-x="80.1" target-y="599.6"></path><path d="M 221.00 681.40 L 218.50 681.20 L 216.30 680.60 L 214.20 679.60 L 210.70 676.60 L 208.40 672.70 L 207.80 670.50 L 207.60 668.00 L 207.80 665.60 L 208.40 663.30 L 210.70 659.40 L 214.20 656.50 L 216.30 655.50 L 218.50 654.90 L 221.00 654.60 L 223.40 654.90 L 225.60 655.50 L 229.60 657.80 L 232.50 661.30 L 233.50 663.30 L 234.10 665.60 L 234.30 668.00 L 234.10 670.50 L 233.50 672.70 L 232.50 674.80 L 229.60 678.20 L 225.60 680.60 L 223.40 681.20 L 221.00 681.40 Z M 221.00 661.10 L 219.10 661.30 L 217.50 662.00 L 216.00 663.10 L 215.00 664.50 L 214.30 666.20 L 214.00 668.00 L 214.30 669.90 L 215.00 671.50 L 216.00 672.90 L 217.50 674.00 L 219.10 674.70 L 221.00 675.00 L 222.80 674.70 L 224.50 674.00 L 225.90 672.90 L 227.00 671.50 L 227.70 669.90 L 227.90 668.00 L 227.70 666.20 L 227.00 664.50 L 225.90 663.10 L 224.50 662.00 L 222.80 661.30 L 221.00 661.10 Z" fill="#dfe7ff" fill-rule="nonzero" group-id="1,8,9" node-id="85" stroke="none" target-height="26.800049" target-width="26.699997" target-x="207.6" target-y="654.6"></path><path d="M 599.40 108.30 L 579.40 108.30 L 579.40 88.30 L 579.20 86.50 L 578.50 84.90 L 577.50 83.60 L 576.10 82.60 L 574.60 81.90 L 572.80 81.70 L 571.00 81.90 L 569.40 82.60 L 568.10 83.60 L 567.10 84.90 L 566.40 86.50 L 566.20 88.30 L 566.20 108.30 L 546.20 108.30 L 544.40 108.50 L 542.80 109.20 L 541.50 110.20 L 540.50 111.50 L 539.80 113.10 L 539.60 114.90 L 539.80 116.70 L 540.50 118.20 L 541.50 119.60 L 542.80 120.60 L 544.40 121.20 L 546.20 121.50 L 566.20 121.50 L 566.20 141.50 L 566.40 143.30 L 567.10 144.80 L 568.10 146.20 L 569.40 147.20 L 571.00 147.80 L 572.80 148.10 L 574.60 147.80 L 576.10 147.20 L 577.50 146.20 L 578.50 144.80 L 579.20 143.30 L 579.40 141.50 L 579.40 121.50 L 599.40 121.50 L 601.20 121.20 L 602.70 120.60 L 604.10 119.60 L 605.10 118.20 L 605.80 116.70 L 606.00 114.90 L 605.80 113.10 L 605.10 111.50 L 604.10 110.20 L 602.70 109.20 L 601.20 108.50 L 599.40 108.30 Z" fill="#f3f6ff" fill-rule="nonzero" group-id="1,8,9" node-id="87" stroke="none" target-height="66.40001" target-width="66.400024" target-x="539.6" target-y="81.7"></path><path d="M 657.00 685.30 L 642.10 685.30 L 641.90 669.00 L 641.40 667.70 L 639.40 665.70 L 636.60 664.90 L 633.80 665.70 L 631.80 667.70 L 631.30 669.00 L 631.10 685.30 L 616.30 685.30 L 613.50 686.00 L 611.50 688.00 L 610.80 690.80 L 611.00 692.30 L 611.50 693.60 L 613.50 695.60 L 616.30 696.30 L 631.10 696.30 L 631.30 712.60 L 631.80 713.90 L 633.80 715.90 L 636.60 716.70 L 639.40 715.90 L 641.40 713.90 L 641.90 712.60 L 642.10 696.30 L 657.00 696.30 L 659.70 695.60 L 661.70 693.60 L 662.50 690.80 L 661.70 688.00 L 659.70 686.00 L 657.00 685.30 Z" fill="#dfe7ff" fill-rule="nonzero" group-id="1,8,9" node-id="89" stroke="none" target-height="51.799988" target-width="51.700012" target-x="610.8" target-y="664.9"></path><path d="M 121.90 123.70 L 124.20 125.70 L 129.30 128.60 L 134.80 130.00 L 140.50 130.00 L 146.00 128.60 L 151.10 125.70 L 153.40 123.70 L 157.10 118.90 L 158.30 116.30 L 159.80 110.80 L 159.80 105.10 L 159.20 102.30 L 157.10 97.00 L 155.40 94.50 L 146.80 85.50 L 144.40 83.50 L 139.40 80.60 L 133.80 79.20 L 128.20 79.20 L 122.60 80.60 L 117.60 83.50 L 115.20 85.50 L 111.60 90.30 L 110.30 92.90 L 108.90 98.50 L 108.90 104.10 L 109.40 106.90 L 111.60 112.20 L 113.20 114.70 L 121.90 123.70 Z" fill="#f3f6ff" fill-rule="nonzero" group-id="1,8,9" node-id="91" stroke="none" target-height="50.800003" target-width="50.9" target-x="108.9" target-y="79.2"></path><path d="M 236.60 115.70 L 239.60 117.70 L 243.00 118.60 L 246.40 118.30 L 248.00 117.70 L 251.00 115.70 L 253.10 112.70 L 253.60 111.00 L 253.90 107.60 L 253.10 104.20 L 251.00 101.30 L 241.00 91.30 L 238.00 89.20 L 234.70 88.30 L 231.20 88.60 L 228.00 90.10 L 226.60 91.30 L 225.40 92.70 L 224.00 95.90 L 223.70 99.30 L 224.50 102.70 L 226.60 105.60 L 236.60 115.70 Z" fill="#f3f6ff" fill-rule="nonzero" group-id="1,8,9" node-id="93" stroke="none" target-height="30.299995" target-width="30.199997" target-x="223.7" target-y="88.3"></path><path d="M 85.60 316.40 L 88.50 318.40 L 90.20 319.00 L 93.60 319.30 L 97.00 318.40 L 99.90 316.40 L 102.00 313.40 L 102.60 311.80 L 102.90 308.30 L 102.00 305.00 L 99.90 302.00 L 89.90 292.00 L 87.00 289.90 L 83.60 289.00 L 80.20 289.30 L 77.00 290.80 L 75.50 292.00 L 74.40 293.40 L 72.90 296.60 L 72.60 300.00 L 73.50 303.40 L 75.50 306.40 L 85.60 316.40 Z" fill="#f3f6ff" fill-rule="nonzero" group-id="1,8,9" node-id="95" stroke="none" target-height="30.299988" target-width="30.300003" target-x="72.6" target-y="289"></path><path d="M 613.50 623.80 L 610.50 621.80 L 607.20 620.90 L 603.70 621.20 L 602.10 621.80 L 599.10 623.80 L 597.10 626.80 L 596.20 630.20 L 596.50 633.60 L 597.10 635.20 L 599.10 638.20 L 609.10 648.20 L 612.10 650.30 L 615.50 651.20 L 618.90 650.90 L 622.10 649.40 L 623.50 648.20 L 624.70 646.80 L 626.20 643.60 L 626.50 640.20 L 625.60 636.80 L 623.50 633.80 L 613.50 623.80 Z" fill="#dfe7ff" fill-rule="nonzero" group-id="1,8,9" node-id="97" stroke="none" target-height="30.299988" target-width="30.299988" target-x="596.2" target-y="620.9"></path><path d="M 733.90 632.30 L 733.60 636.70 L 732.80 640.80 L 731.40 644.90 L 729.50 648.70 L 727.20 652.20 L 724.30 655.50 L 721.00 658.40 L 717.50 660.70 L 713.70 662.60 L 709.60 664.00 L 705.50 664.80 L 701.10 665.10 L 696.80 664.80 L 692.60 664.00 L 688.60 662.60 L 684.80 660.70 L 681.20 658.40 L 677.90 655.50 L 675.10 652.20 L 672.70 648.70 L 670.80 644.90 L 669.50 640.80 L 668.60 636.70 L 668.40 632.30 L 668.60 628.00 L 669.50 623.80 L 670.80 619.80 L 672.70 616.00 L 675.10 612.40 L 677.90 609.10 L 681.20 606.30 L 684.80 603.90 L 688.60 602.00 L 692.60 600.70 L 696.80 599.80 L 701.10 599.60 L 705.50 599.80 L 709.60 600.70 L 713.70 602.00 L 717.50 603.90 L 721.00 606.30 L 724.30 609.10 L 727.20 612.40 L 729.50 616.00 L 731.40 619.80 L 732.80 623.80 L 733.60 628.00 L 733.90 632.30 Z" fill="#dfe7ff" fill-rule="nonzero" group-id="1,8,9" node-id="99" stroke="none" target-height="65.5" target-width="65.5" target-x="668.4" target-y="599.6"></path><path d="M 701.80 480.40 L 670.30 448.90 L 650.30 427.60 L 648.70 425.60 L 647.60 423.60 L 646.80 421.30 L 646.40 416.70 L 647.50 412.20 L 648.60 410.10 L 650.10 408.10 L 652.20 406.30 L 654.30 405.00 L 656.70 404.10 L 659.20 403.60 L 661.70 403.60 L 664.20 404.00 L 666.60 404.80 L 668.80 406.10 L 670.90 407.90 L 684.20 421.60 L 686.20 423.30 L 688.30 424.50 L 692.90 425.80 L 697.60 425.60 L 699.90 424.80 L 702.00 423.70 L 704.00 422.10 L 705.70 420.20 L 706.90 418.10 L 707.80 415.80 L 708.20 413.40 L 708.20 411.10 L 707.80 408.70 L 707.10 406.40 L 705.90 404.30 L 704.20 402.30 L 685.60 383.70 L 682.30 380.00 L 679.50 376.10 L 677.20 372.00 L 675.20 367.60 L 673.80 363.00 L 671.10 346.60 L 668.80 335.20 L 666.10 324.00 L 662.90 313.10 L 659.30 302.30 L 655.30 291.60 L 650.80 281.20 L 646.00 271.10 L 640.70 261.10 L 635.10 251.50 L 629.00 242.00 L 622.60 232.80 L 615.90 223.90 L 608.80 215.30 L 601.40 207.00 L 593.60 199.00 L 585.60 191.30 L 577.20 183.90 L 568.60 176.90 L 559.60 170.20 L 550.40 163.80 L 540.90 157.90 L 531.20 152.30 L 521.20 147.10 L 511.00 142.30 L 500.60 137.90 L 490.00 133.90 L 479.10 130.40 L 468.10 127.30 L 456.80 124.60 L 445.50 122.40 L 434.00 120.70 L 422.30 119.40 L 410.40 118.70 L 398.30 118.40 L 384.10 118.80 L 379.00 118.30 L 374.40 116.60 L 372.30 115.20 L 351.20 94.40 L 346.50 90.80 L 341.20 88.50 L 337.50 87.80 L 333.80 87.70 L 330.00 88.20 L 324.70 90.10 L 322.20 91.60 L 319.90 93.50 L 317.70 95.80 L 316.00 98.20 L 314.60 100.90 L 313.60 103.70 L 312.80 109.40 L 313.40 115.20 L 314.30 118.00 L 315.60 120.70 L 317.20 123.20 L 333.00 139.80 L 335.00 142.30 L 336.30 145.00 L 337.10 147.80 L 337.40 150.70 L 337.10 153.60 L 336.40 156.40 L 335.10 159.00 L 333.30 161.40 L 331.00 163.50 L 328.70 164.90 L 326.40 165.80 L 324.10 166.30 L 321.70 166.30 L 319.30 166.00 L 314.80 164.10 L 310.80 160.80 L 272.00 122.30 L 269.90 120.70 L 267.60 119.70 L 265.10 119.20 L 262.50 119.40 L 260.90 119.80 L 257.90 121.60 L 255.60 124.60 L 254.50 128.10 L 254.70 131.60 L 255.30 133.40 L 257.40 136.50 L 281.20 160.10 L 282.80 162.50 L 285.00 167.60 L 285.60 171.20 L 285.70 174.80 L 285.10 178.40 L 283.00 183.50 L 279.40 188.20 L 277.10 190.20 L 274.60 191.80 L 269.40 193.80 L 265.70 194.40 L 262.00 194.40 L 258.30 193.70 L 253.10 191.60 L 248.50 187.90 L 233.70 172.60 L 198.40 137.30 L 196.10 135.30 L 193.60 133.70 L 188.30 131.50 L 182.70 130.80 L 177.00 131.50 L 171.70 133.70 L 169.20 135.30 L 166.90 137.30 L 163.30 142.10 L 162.00 144.70 L 160.60 150.20 L 160.60 155.90 L 161.10 158.70 L 163.30 164.00 L 166.90 168.80 L 192.50 194.50 L 201.50 202.90 L 205.10 207.50 L 207.20 212.70 L 207.90 216.40 L 207.90 220.00 L 207.40 223.70 L 206.50 226.40 L 203.90 231.30 L 201.90 233.70 L 199.60 235.80 L 197.10 237.50 L 194.40 238.80 L 191.50 239.80 L 188.70 240.30 L 182.80 240.30 L 177.10 238.60 L 174.40 237.20 L 172.00 235.50 L 149.30 212.40 L 146.00 209.40 L 142.40 207.00 L 138.60 205.10 L 134.60 203.70 L 130.50 202.80 L 126.40 202.50 L 122.20 202.60 L 118.10 203.30 L 114.10 204.50 L 110.20 206.20 L 106.60 208.40 L 103.20 211.20 L 100.10 214.70 L 97.50 218.30 L 95.60 222.10 L 94.10 226.20 L 93.30 230.40 L 92.90 234.60 L 93.10 238.90 L 93.90 243.10 L 95.20 247.20 L 97.10 251.10 L 99.50 254.80 L 102.50 258.20 L 157.70 313.20 L 159.70 315.60 L 161.10 318.10 L 162.10 320.90 L 162.50 323.80 L 162.50 326.60 L 161.90 329.50 L 160.80 332.20 L 159.30 334.80 L 157.20 337.10 L 154.80 338.90 L 152.40 340.20 L 149.70 341.00 L 146.90 341.40 L 144.20 341.30 L 141.50 340.80 L 138.90 339.80 L 136.50 338.40 L 134.20 336.50 L 120.80 322.80 L 119.30 321.60 L 116.10 320.10 L 112.70 319.80 L 111.00 320.10 L 107.80 321.60 L 106.40 322.80 L 104.90 324.30 L 103.90 325.90 L 103.30 327.60 L 103.20 331.00 L 103.60 332.80 L 104.80 335.10 L 106.40 337.20 L 124.20 355.00 L 161.20 391.10 L 163.10 393.40 L 164.50 395.80 L 165.50 398.40 L 166.00 401.10 L 166.00 403.80 L 165.50 406.50 L 164.60 409.20 L 163.20 411.60 L 161.30 413.80 L 159.10 415.70 L 156.70 417.00 L 154.10 417.90 L 151.50 418.40 L 148.80 418.40 L 146.10 418.00 L 143.60 417.10 L 141.20 415.70 L 139.00 413.90 L 95.30 370.70 L 93.30 369.10 L 91.30 367.90 L 89.00 367.00 L 86.60 366.50 L 81.90 366.80 L 79.60 367.50 L 77.50 368.60 L 75.50 370.20 L 73.80 372.20 L 72.60 374.30 L 71.70 376.50 L 71.30 378.90 L 71.30 381.30 L 71.70 383.70 L 72.50 386.00 L 73.70 388.10 L 75.30 390.10 L 119.20 434.00 L 121.60 436.80 L 123.60 440.00 L 125.10 443.40 L 128.70 459.50 L 131.90 471.70 L 135.60 483.60 L 139.80 495.30 L 144.50 506.70 L 149.70 518.00 L 155.40 528.90 L 161.60 539.50 L 168.20 549.80 L 175.20 559.80 L 182.70 569.50 L 190.60 578.80 L 198.90 587.80 L 207.50 596.40 L 216.60 604.60 L 226.00 612.40 L 235.70 619.80 L 245.70 626.80 L 256.10 633.30 L 266.80 639.40 L 277.80 645.00 L 289.00 650.20 L 300.50 654.80 L 312.20 658.90 L 324.30 662.60 L 336.50 665.60 L 348.80 668.20 L 361.40 670.10 L 374.20 671.50 L 390.90 672.70 L 394.40 673.50 L 397.70 674.70 L 400.90 676.20 L 403.90 678.20 L 406.60 680.50 L 426.90 699.80 L 431.60 703.50 L 436.80 705.70 L 440.60 706.50 L 444.30 706.60 L 448.10 706.10 L 453.40 704.20 L 455.80 702.70 L 458.20 700.80 L 460.40 698.50 L 462.10 696.00 L 463.50 693.40 L 464.50 690.60 L 465.30 684.80 L 464.70 679.10 L 462.50 673.60 L 460.90 671.10 L 458.80 668.70 L 446.70 656.20 L 445.10 654.00 L 443.90 651.70 L 443.20 649.30 L 442.90 646.70 L 443.00 644.20 L 443.60 641.70 L 444.60 639.40 L 446.10 637.20 L 448.00 635.30 L 450.10 633.80 L 452.30 632.70 L 454.60 632.00 L 457.10 631.80 L 461.80 632.40 L 464.10 633.40 L 466.20 634.70 L 488.30 657.60 L 510.30 679.60 L 512.70 681.70 L 515.20 683.30 L 520.70 685.50 L 523.60 686.00 L 529.40 685.90 L 535.00 684.30 L 537.60 683.00 L 540.10 681.20 L 542.40 679.10 L 544.30 676.70 L 545.80 674.20 L 547.70 668.90 L 548.20 665.20 L 548.10 661.40 L 547.40 657.70 L 546.40 655.00 L 543.50 650.00 L 525.10 631.20 L 523.00 628.70 L 521.30 626.10 L 520.10 623.30 L 518.70 617.50 L 518.80 611.50 L 519.40 608.60 L 521.80 603.00 L 523.60 600.50 L 525.80 598.10 L 528.70 595.70 L 531.20 594.10 L 536.60 592.00 L 540.40 591.40 L 544.20 591.40 L 548.10 592.10 L 553.50 594.20 L 556.00 595.80 L 558.30 597.90 L 578.10 617.10 L 580.20 618.80 L 582.50 619.80 L 585.10 620.30 L 587.60 620.10 L 590.70 618.90 L 593.50 616.40 L 594.50 614.90 L 595.60 611.40 L 595.40 607.80 L 593.90 604.50 L 587.50 597.90 L 584.90 595.80 L 579.00 590.20 L 562.70 573.70 L 554.90 565.50 L 552.50 561.90 L 551.50 557.70 L 551.90 553.60 L 552.70 551.60 L 555.30 548.00 L 559.00 545.60 L 561.00 545.00 L 565.20 544.70 L 569.20 545.90 L 571.10 547.00 L 603.80 581.30 L 618.00 595.50 L 621.30 598.40 L 624.90 600.80 L 628.70 602.70 L 632.70 604.10 L 636.70 605.00 L 640.90 605.40 L 645.10 605.20 L 649.20 604.60 L 653.20 603.40 L 657.00 601.70 L 660.70 599.40 L 664.10 596.60 L 667.20 593.20 L 669.80 589.60 L 671.70 585.70 L 673.20 581.60 L 674.00 577.50 L 674.40 573.20 L 674.10 569.00 L 673.40 564.80 L 672.00 560.70 L 670.20 556.80 L 667.80 553.10 L 664.80 549.60 L 642.20 527.10 L 630.80 514.60 L 629.10 512.50 L 627.90 510.20 L 627.20 507.80 L 626.80 505.20 L 626.90 502.70 L 627.40 500.20 L 628.30 497.80 L 629.60 495.60 L 631.40 493.50 L 633.60 491.80 L 635.90 490.50 L 638.40 489.70 L 641.00 489.30 L 643.60 489.40 L 646.20 489.90 L 648.70 490.90 L 650.90 492.30 L 670.60 512.20 L 673.00 514.30 L 675.50 515.90 L 678.10 517.20 L 683.80 518.60 L 689.60 518.50 L 692.50 517.90 L 697.90 515.60 L 700.40 513.80 L 702.70 511.70 L 706.10 506.80 L 708.00 501.50 L 708.50 497.80 L 708.40 494.10 L 707.60 490.30 L 705.40 485.10 L 701.80 480.40 Z" fill="url(#SVGID_1_)" fill-rule="nonzero" group-id="1,8,9" node-id="101" stroke="none" target-height="618.89996" target-width="637.2" target-x="71.3" target-y="87.7"></path><path d="M 429.60 201.30 L 414.70 201.30 L 414.50 184.90 L 414.00 183.60 L 412.00 181.60 L 409.20 180.90 L 406.50 181.60 L 404.50 183.60 L 403.90 184.90 L 403.70 201.30 L 388.90 201.30 L 386.10 202.00 L 384.10 204.00 L 383.40 206.80 L 383.60 208.30 L 384.10 209.50 L 386.10 211.50 L 388.90 212.30 L 403.70 212.30 L 403.90 228.60 L 405.30 231.00 L 407.70 232.40 L 409.20 232.60 L 412.00 231.90 L 414.00 229.90 L 414.50 228.60 L 414.70 212.30 L 429.60 212.30 L 432.40 211.50 L 434.30 209.50 L 435.10 206.80 L 434.30 204.00 L 432.40 202.00 L 429.60 201.30 Z" fill="#ffffff" fill-rule="nonzero" group-id="1,8,9" node-id="103" stroke="none" target-height="51.700012" target-width="51.700012" target-x="383.4" target-y="180.9"></path><path d="M 585.30 419.80 L 582.90 419.60 L 580.70 419.00 L 576.70 416.60 L 573.80 413.20 L 572.80 411.10 L 572.20 408.80 L 572.00 406.40 L 572.20 404.00 L 572.80 401.70 L 575.10 397.80 L 578.60 394.90 L 580.70 393.90 L 582.90 393.30 L 585.30 393.00 L 587.80 393.30 L 590.00 393.90 L 594.00 396.20 L 596.90 399.70 L 597.90 401.70 L 598.50 404.00 L 598.70 406.40 L 598.50 408.80 L 597.90 411.10 L 595.60 415.00 L 592.10 418.00 L 590.00 419.00 L 587.80 419.60 L 585.30 419.80 Z M 585.30 399.50 L 583.50 399.70 L 581.80 400.40 L 580.40 401.50 L 579.30 402.90 L 578.60 404.50 L 578.40 406.40 L 578.60 408.30 L 579.30 409.90 L 580.40 411.30 L 581.80 412.40 L 583.50 413.10 L 585.30 413.40 L 587.20 413.10 L 588.80 412.40 L 590.20 411.30 L 591.30 409.90 L 592.00 408.30 L 592.30 406.40 L 592.00 404.50 L 591.30 402.90 L 590.20 401.50 L 588.80 400.40 L 587.20 399.70 L 585.30 399.50 Z" fill="#ffffff" fill-rule="nonzero" group-id="1,8,9" node-id="105" stroke="none" target-height="26.799988" target-width="26.700012" target-x="572" target-y="393"></path><path d="M 222.70 521.80 L 220.20 521.60 L 218.00 521.00 L 214.10 518.70 L 211.10 515.20 L 210.10 513.10 L 209.50 510.90 L 209.30 508.40 L 209.50 506.00 L 210.10 503.80 L 212.50 499.80 L 215.90 496.90 L 218.00 495.90 L 220.20 495.30 L 222.70 495.10 L 225.10 495.30 L 227.40 495.90 L 231.30 498.20 L 234.20 501.70 L 235.20 503.80 L 235.80 506.00 L 236.10 508.40 L 235.80 510.90 L 235.20 513.10 L 234.20 515.20 L 231.30 518.70 L 227.40 521.00 L 225.10 521.60 L 222.70 521.80 Z M 222.70 501.50 L 220.80 501.70 L 219.20 502.40 L 217.80 503.50 L 216.70 504.90 L 216.00 506.60 L 215.70 508.40 L 216.00 510.30 L 216.70 511.90 L 217.80 513.40 L 219.20 514.40 L 220.80 515.10 L 222.70 515.40 L 224.50 515.10 L 226.20 514.40 L 227.60 513.40 L 228.70 511.90 L 229.40 510.30 L 229.60 508.40 L 229.40 506.60 L 228.70 504.90 L 227.60 503.50 L 226.20 502.40 L 224.50 501.70 L 222.70 501.50 Z" fill="#ffffff" fill-rule="nonzero" group-id="1,8,9" node-id="107" stroke="none" target-height="26.699982" target-width="26.800003" target-x="209.3" target-y="495.1"></path></g><g node-id="139"><path d="M 256.30 414.60 L 231.20 414.60 L 231.20 362.90 L 176.00 362.90 L 176.00 414.60 L 127.80 414.60 L 202.20 255.60 L 142.00 253.90 L 68.40 412.50 L 68.40 414.60 L 68.40 478.50 L 176.00 478.50 L 176.00 513.80 L 231.20 513.80 L 231.20 478.50 L 256.30 478.50 Z" fill="url(#SVGID_2_)" fill-rule="nonzero" group-id="1,8,10" node-id="112" stroke="none" target-height="259.9" target-width="187.9" target-x="68.4" target-y="253.9"></path><path d="M 733.40 414.60 L 708.20 414.60 L 708.20 362.90 L 653.10 362.90 L 653.10 414.60 L 604.90 414.60 L 679.20 255.60 L 619.10 253.90 L 545.50 412.50 L 545.40 414.60 L 545.40 478.50 L 653.10 478.50 L 653.10 513.80 L 708.20 513.80 L 708.20 478.50 L 733.40 478.50 Z" fill="url(#SVGID_3_)" fill-rule="nonzero" group-id="1,8,10" node-id="114" stroke="none" target-height="259.9" target-width="188" target-x="545.4" target-y="253.9"></path><path d="M 477.90 249.10 L 464.40 284.40 L 415.80 313.70 L 410.40 360.50 L 388.50 380.90 L 405.20 405.10 L 402.00 432.70 L 386.80 454.20 L 395.70 425.50 L 394.60 407.40 L 362.40 380.70 L 382.80 350.80 L 362.40 297.60 L 378.20 276.10 L 360.60 234.60 L 352.60 237.00 L 344.90 239.70 L 337.40 242.90 L 330.10 246.40 L 323.10 250.20 L 316.20 254.50 L 309.50 259.10 L 303.20 263.90 L 297.10 269.10 L 291.20 274.70 L 285.70 280.50 L 280.50 286.60 L 275.60 292.90 L 271.00 299.50 L 266.70 306.40 L 262.70 313.40 L 259.20 320.70 L 256.00 328.20 L 253.20 335.90 L 250.80 343.80 L 248.80 351.80 L 247.30 359.90 L 246.10 368.20 L 245.40 376.80 L 245.20 385.50 L 245.40 394.10 L 246.10 402.60 L 247.20 410.90 L 248.80 419.00 L 250.80 427.00 L 253.20 434.90 L 256.00 442.60 L 259.10 450.00 L 262.60 457.30 L 266.50 464.30 L 271.90 472.90 L 277.80 481.00 L 284.10 488.70 L 291.00 496.00 L 298.30 502.80 L 306.00 509.20 L 314.10 515.00 L 322.60 520.40 L 329.70 524.30 L 336.90 527.80 L 344.40 531.00 L 352.00 533.80 L 359.90 536.20 L 367.90 538.20 L 376.00 539.70 L 384.30 540.80 L 392.80 541.50 L 401.50 541.80 L 410.20 541.50 L 418.60 540.80 L 426.90 539.70 L 435.10 538.20 L 443.00 536.20 L 450.90 533.80 L 458.60 531.00 L 466.10 527.80 L 473.30 524.30 L 480.40 520.40 L 488.90 515.00 L 497.00 509.20 L 504.70 502.80 L 512.00 496.00 L 518.90 488.70 L 525.20 481.00 L 531.10 472.90 L 536.40 464.30 L 540.30 457.30 L 543.90 450.00 L 547.00 442.60 L 549.80 434.90 L 552.20 427.00 L 554.20 419.00 L 555.70 410.90 L 556.90 402.60 L 557.50 394.10 L 557.80 385.50 L 557.50 376.60 L 556.80 368.00 L 555.70 359.60 L 554.10 351.30 L 552.00 343.20 L 549.50 335.20 L 546.70 327.40 L 543.40 319.80 L 539.80 312.50 L 535.70 305.40 L 531.30 298.40 L 526.60 291.80 L 521.60 285.40 L 516.20 279.30 L 510.50 273.50 L 504.50 267.90 L 498.30 262.70 L 491.80 257.90 L 485.00 253.30 L 477.90 249.10 Z" fill="url(#SVGID_4_)" fill-rule="nonzero" group-id="1,8,10" node-id="116" stroke="none" target-height="307.19998" target-width="312.59998" target-x="245.2" target-y="234.6"></path><g node-id="140"><path d="M 452.40 492.50 L 449.40 492.20 L 446.70 491.50 L 444.20 490.30 L 441.90 488.70 L 440.00 486.70 L 438.30 484.40 L 437.10 481.90 L 436.40 479.20 L 436.10 476.30 L 436.40 473.30 L 437.10 470.60 L 438.30 468.10 L 440.00 465.80 L 441.90 463.80 L 444.20 462.20 L 446.70 461.00 L 449.40 460.30 L 452.40 460.00 L 455.30 460.30 L 458.10 461.00 L 460.60 462.20 L 462.90 463.80 L 464.80 465.80 L 466.40 468.10 L 467.60 470.60 L 468.30 473.30 L 468.60 476.30 L 468.30 479.20 L 467.60 481.90 L 466.40 484.40 L 464.80 486.70 L 462.80 488.70 L 460.60 490.30 L 458.00 491.50 L 455.30 492.20 L 452.40 492.50 Z M 452.40 466.00 L 448.80 466.60 L 445.80 468.40 L 443.50 471.10 L 442.80 472.70 L 442.10 476.30 L 442.80 479.80 L 444.50 482.90 L 447.20 485.10 L 450.50 486.30 L 454.20 486.30 L 456.00 485.90 L 459.00 484.10 L 461.20 481.40 L 462.00 479.80 L 462.60 476.30 L 462.00 472.70 L 460.20 469.60 L 457.50 467.40 L 456.00 466.60 L 452.40 466.00 Z" fill="#ffffff" fill-rule="nonzero" group-id="1,8,10,11" node-id="120" stroke="none" target-height="32.5" target-width="32.5" target-x="436.1" target-y="460"></path></g><g node-id="141"><path d="M 309.70 426.30 L 307.30 426.10 L 305.10 425.50 L 301.10 423.20 L 298.30 419.80 L 297.30 417.70 L 296.70 415.50 L 296.40 413.10 L 296.70 410.70 L 297.30 408.40 L 299.60 404.50 L 303.00 401.60 L 305.10 400.70 L 307.30 400.10 L 309.70 399.80 L 312.10 400.10 L 314.30 400.70 L 316.40 401.60 L 319.80 404.50 L 322.10 408.40 L 322.70 410.70 L 322.90 413.10 L 322.70 415.50 L 322.10 417.70 L 319.80 421.60 L 316.40 424.50 L 314.30 425.50 L 312.10 426.10 L 309.70 426.30 Z M 309.70 404.70 L 307.50 405.00 L 305.50 405.90 L 303.80 407.20 L 302.50 408.90 L 301.60 410.80 L 301.30 413.10 L 301.60 415.30 L 302.50 417.30 L 303.80 419.00 L 305.50 420.30 L 307.50 421.10 L 309.70 421.40 L 311.90 421.10 L 313.90 420.30 L 315.60 419.00 L 316.90 417.30 L 317.70 415.30 L 318.10 413.10 L 317.70 410.80 L 316.90 408.90 L 315.60 407.20 L 313.90 405.90 L 311.90 405.00 L 309.70 404.70 Z" fill="#ffffff" fill-rule="nonzero" group-id="1,8,10,12" node-id="125" stroke="none" target-height="26.5" target-width="26.5" target-x="296.4" target-y="399.8"></path></g><path d="M 480.80 355.10 L 474.30 349.90 L 479.50 343.50 L 480.10 342.40 L 480.20 341.20 L 479.80 340.10 L 479.10 339.10 L 478.00 338.60 L 476.80 338.50 L 475.70 338.80 L 474.70 339.60 L 469.60 346.10 L 463.10 340.90 L 462.00 340.30 L 460.90 340.20 L 459.80 340.60 L 458.80 341.30 L 458.20 342.40 L 458.20 343.60 L 458.50 344.70 L 459.30 345.70 L 465.70 350.80 L 460.50 357.30 L 460.00 358.40 L 459.90 359.50 L 460.20 360.60 L 461.00 361.60 L 462.10 362.10 L 463.30 362.20 L 464.40 361.90 L 465.30 361.10 L 470.50 354.70 L 476.90 359.90 L 478.00 360.40 L 479.20 360.50 L 480.30 360.20 L 481.30 359.40 L 481.80 358.30 L 481.90 357.10 L 481.60 356.00 L 480.80 355.10 Z" fill="#ffffff" fill-rule="nonzero" group-id="1,8,10" node-id="128" stroke="none" target-height="23.700012" target-width="23.699982" target-x="458.2" target-y="338.5"></path></g></g></g></svg>