<svg t="1730826926928" class="icon" viewBox="0 0 1024 1024" version="1.1" xmlns="http://www.w3.org/2000/svg" p-id="17071" width="200" height="200"><path d="M864.4 612.5V392L584.7 496.9c-40 15-104.9 15-145 0l-290-108.7c-40-15-40-39.4 0-54.4l290-108.7c40-15 104.9-15 145 0l290 108.7c20 7.5 30 17.3 30 27.2h10v251.6h-50.3v-0.1z" fill="#f072ad" p-id="17072"></path><path d="M914.7 612.5h-50.3V392l50.3-31.1z" fill="#f072ad" p-id="17073"></path><path d="M562.5 612.5l201.2-101v201.7c0 55.6-45 100.6-100.6 100.6H361.2c-55.6 0-100.6-45.1-100.6-100.6V511.5l201.3 101c40 15 60.6 15 100.6 0z" fill="#f072ad" p-id="17074"></path></svg>