<svg t="1730574743883" class="icon" viewBox="0 0 1024 1024" version="1.1" xmlns="http://www.w3.org/2000/svg" p-id="15751" width="200" height="200"><path d="M427.52 211.008c25.088-41.152 79.552-54.976 122.24-31.616 12.864 7.04 23.296 16.64 30.912 27.84l3.968 6.4 7.232-2.176c19.392-4.928 40.32-3.712 59.648 4.48l8.128 3.904c23.104 12.672 38.272 33.792 43.648 57.088l0.256 1.6 5.76-0.064a92.565 92.565 0 0 1 34.112 7.36l8.128 3.904c38.592 21.12 55.04 65.664 40.704 104.832l7.936 2.176 8.32 3.072 8.128 3.968c43.712 23.872 59.008 77.824 33.472 120.064L638.144 873.28c-3.776 6.272-6.592 10.432-10.432 14.912C592.768 929.088 533.632 960 447.68 960c-121.28 0-242.88-65.92-304.768-168.768a244.096 244.096 0 0 1-18.56-37.952l-6.016-17.088a406.528 406.528 0 0 1-13.632-60.608l-3.2-24c-1.024-8.384-1.92-17.152-2.752-26.368l-2.112-28.8-1.728-31.616-1.216-34.56-0.832-37.632-0.512-41.088-0.256-92.8c0-102.016 135.424-127.68 196.864-40.32 11.648 16.512 21.12 40.832 29.952 71.872l-0.32-0.832z m86.528 22.4a27.84 27.84 0 0 0-31.872 10.88L332.16 490.624a32 32 0 0 1-58.88-11.52L270.464 464l-4.992-23.936a629.056 629.056 0 0 0-8.128-32.448c-6.912-24.576-14.336-43.328-20.672-52.416-28.288-40.128-80.512-30.272-80.512 3.52l0.128 69.44 0.576 59.072 0.768 35.328 1.088 32.32 1.472 29.44 1.856 26.88 2.24 24.448 2.752 22.08c2.432 17.536 5.44 32.832 8.96 46.464l4.48 15.488c4.864 14.784 10.624 27.328 17.28 38.528 50.176 83.2 150.784 137.728 249.984 137.728 65.92 0 107.968-21.888 131.392-49.28l1.152-1.472c0.832-1.152 1.792-2.752 3.2-5.12l211.904-349.44c6.464-10.624 2.688-24.128-9.344-30.72-13.056-7.104-29.888-2.816-36.992 8.832-22.208 36.48-76.864 3.136-54.656-33.28l35.84-58.88c6.528-10.624 2.688-24.128-9.344-30.72-12.992-7.04-29.76-2.816-36.864 8.832-22.208 36.48-76.8 3.136-54.656-33.28l8.96-14.72c6.464-10.624 2.688-24.128-9.344-30.72-13.056-7.04-29.824-2.816-36.864 8.832l-8.96 14.72c-22.208 36.416-76.864 3.136-54.656-33.28 6.4-10.688 2.624-24.128-9.344-30.72z m-108.8 270.848c90.112 44.16 100.672 132.224 38.4 247.04a32 32 0 0 1-56.32-30.592c46.976-86.464 41.344-133.76-10.24-158.976a32 32 0 1 1 28.16-57.472zM808.704 67.392l25.984 13.184 11.968 6.4 9.536 5.504 8.832 5.632 9.6 6.592c24.192 16.96 44.672 36.608 61.44 60.416 25.216 35.84 39.04 81.728 46.976 145.92a32 32 0 0 1-63.552 7.744c-6.72-54.656-17.728-91.2-35.776-116.8a183.744 183.744 0 0 0-45.824-44.864l-8.64-5.952-12.672-7.68-18.24-9.6-18.432-9.344a32 32 0 1 1 28.8-57.152z" fill="#F1CCA8" p-id="15752"></path><path d="M192 128a64 64 0 1 0 128 0 64 64 0 1 0-128 0zM896 640a64 64 0 1 0 128 0 64 64 0 1 0-128 0zM0 928a96 96 0 1 0 192 0 96 96 0 1 0-192 0z" fill="#F1CCA8" fill-opacity=".5" p-id="15753"></path></svg>